HIERARCHY
ROOT root
{
	OFFSET	0	13.1	24.9
	CHANNELS 6  Xposition Yposition Zposition Xrotation Yrotation Zrotation
	JOINT spine_1
	{
		OFFSET	0	9.99999	0
		CHANNELS 3  Xrotation Yrotation Zrotation
		JOINT spine_2
		{
			OFFSET	0	112	-10
			CHANNELS 3  Xrotation Yrotation Zrotation
			JOINT spine_3
			{
				OFFSET	0	206.5	19.3
				CHANNELS 3  Xrotation Yrotation Zrotation
				JOINT spine_4
				{
					OFFSET	0	110.4	14.6
					CHANNELS 3  Xrotation Yrotation Zrotation
					JOINT neck_1
					{
						OFFSET	0	71.8	-50.3
						CHANNELS 3  Xrotation Yrotation Zrotation
						JOINT neck_2
						{
							OFFSET	0	86.2	-25.8
							CHANNELS 3  Xrotation Yrotation Zrotation
							JOINT head_ee
							{
								OFFSET	0	179.8	-8.7
								CHANNELS 3  Xrotation Yrotation Zrotation
								End Site
								{
									OFFSET	1	0	0
								}
							}
						}
					}
					JOINT left_clavicle
					{
						OFFSET	-43.2	22.4	-70.8
						CHANNELS 3  Xrotation Yrotation Zrotation
						JOINT left_shoulder
						{
							OFFSET	-93.9	-5.79999	48.7
							CHANNELS 3  Xrotation Yrotation Zrotation
							JOINT left_elbow
							{
								OFFSET	-291.4	-30.8	15.2
								CHANNELS 3  Xrotation Yrotation Zrotation
								JOINT left_lowarm_twist
								{
									OFFSET	-110.7	-3.89999	13.6
									CHANNELS 3  Xrotation Yrotation Zrotation
									JOINT left_hand
									{
										OFFSET	-110.7	-3.89999	13.6
										CHANNELS 3  Xrotation Yrotation Zrotation
										JOINT left_ee
										{
											OFFSET	-80.8	-5.10001	12.1
											CHANNELS 3  Xrotation Yrotation Zrotation
											End Site
											{
												OFFSET	1	0	0
											}
										}
									}
								}
							}
						}
					}
					JOINT right_clavicle
					{
						OFFSET	43.2	22.4	-70.8
						CHANNELS 3  Xrotation Yrotation Zrotation
						JOINT right_shoulder
						{
							OFFSET	93.9	-5.79999	48.7
							CHANNELS 3  Xrotation Yrotation Zrotation
							JOINT right_elbow
							{
								OFFSET	291.4	-30.8	15.2
								CHANNELS 3  Xrotation Yrotation Zrotation
								JOINT right_lowarm_twist
								{
									OFFSET	110.7	-3.89999	13.6
									CHANNELS 3  Xrotation Yrotation Zrotation
									JOINT right_hand
									{
										OFFSET	110.7	-3.89999	13.6
										CHANNELS 3  Xrotation Yrotation Zrotation
										JOINT right_ee
										{
											OFFSET	80.8	-5.10001	12.1
											CHANNELS 3  Xrotation Yrotation Zrotation
											End Site
											{
												OFFSET	1	0	0
											}
										}
									}
								}
							}
						}
					}
				}
			}
		}
	}
	JOINT left_hip
	{
		OFFSET	-82.8	-127.5	0.300001
		CHANNELS 3  Xrotation Yrotation Zrotation
		JOINT left_knee
		{
			OFFSET	-28.2	-396.7	2.2
			CHANNELS 3  Xrotation Yrotation Zrotation
			JOINT left_ankle
			{
				OFFSET	-11.7	-411.3	35.4
				CHANNELS 3  Xrotation Yrotation Zrotation
				JOINT left_toes
				{
					OFFSET	0	-60	-88.6
					CHANNELS 3  Xrotation Yrotation Zrotation
					JOINT left_foot_ee
					{
						OFFSET	-22.5	-16.5	-42.2
						CHANNELS 3  Xrotation Yrotation Zrotation
						End Site
						{
							OFFSET	1	0	0
						}
					}
				}
			}
		}
	}
	JOINT right_hip
	{
		OFFSET	82.8	-127.5	0.300001
		CHANNELS 3  Xrotation Yrotation Zrotation
		JOINT right_knee
		{
			OFFSET	28.2	-396.7	2.2
			CHANNELS 3  Xrotation Yrotation Zrotation
			JOINT right_ankle
			{
				OFFSET	11.7	-411.3	35.4
				CHANNELS 3  Xrotation Yrotation Zrotation
				JOINT right_toes
				{
					OFFSET	0	-60	-88.6
					CHANNELS 3  Xrotation Yrotation Zrotation
					JOINT right_foot_ee
					{
						OFFSET	22.5	-16.5	-42.2
						CHANNELS 3  Xrotation Yrotation Zrotation
						End Site
						{
							OFFSET	1	0	0
						}
					}
				}
			}
		}
	}
}
MOTION
Frames: 6
Frame Time: 0.02
1142.41 750.061 -661.033 146.165 -79.3934 152.067 -1.79147 -0.359397 -2.42685 -1.78822 -0.204289 -2.44479 -1.77621 0.389545 -2.4222 -1.7844 0.00223519 -2.4533 -7.53519 5.06015 8.73372 -7.32781 3.16816 9.74238 -0.0 0.0 -0.0 6.86098 4.05863 13.2911 9.52241 -35.3982 60.4749 1.31085 -32.9963 0.38826 9.92401 0.242535 -1.24292 -0.633254 11.1679 0.582826 -0.0 0.0 -0.0 4.86619 23.5597 -7.81596 -24.7685 11.7507 -64.0508 0.943127 25.0415 -0.209449 -13.258 0.651011 -1.5614 -2.00593 -16.4226 5.61047 0.0 0.0 0.0 -0.0452769 15.8549 -0.76769 -6.04843 0.201358 0.905988 25.8344 12.1143 -3.44282 -10.8295 0.0 0.0 -0.0 0.0 -0.0 20.4301 10.7854 -6.87363 -50.9518 1.30607 -7.4567 38.0909 -10.8359 4.71125 -33.3183 0.0 0.0 0.0 0.0 0.0 
1154.14 746.271 -662.009 150.108 -78.8195 156.154 -1.69721 -0.373305 -2.71824 -1.69312 -0.199646 -2.73647 -1.67963 0.459701 -2.70498 -1.68984 0.026899 -2.7436 -6.65168 5.48114 8.67185 -6.44909 3.83756 9.76438 -0.0 0.0 -0.0 6.75564 2.89192 13.102 10.7569 -36.0345 59.8357 1.50211 -36.6505 0.497535 10.096 0.244828 -1.26477 -0.571062 10.6825 0.772249 -0.0 0.0 -0.0 4.91336 22.6259 -8.00807 -26.6898 12.216 -64.1577 0.788978 21.3473 -0.148705 -13.0971 0.640971 -1.54342 -2.03001 -17.2416 5.3572 0.0 0.0 0.0 -1.79586 16.1924 -0.246503 -4.02177 0.14457 0.600161 27.9749 12.434 -3.68839 -10.2454 0.0 0.0 -0.0 0.0 -0.0 22.4402 7.62218 -6.72619 -50.2467 1.24372 -7.36778 37.3138 -9.78724 4.63169 -33.9409 0.0 0.0 0.0 0.0 0.0 
1169.51 745.672 -660.88 152.003 -78.0913 158.585 -1.71538 -0.369254 -2.88663 -1.71076 -0.184901 -2.90426 -1.69696 0.515032 -2.86424 -1.7084 0.0564149 -2.90959 -7.59232 5.30984 8.82617 -7.3813 3.5774 9.88526 -0.0 0.0 -0.0 6.62444 3.03454 12.8484 11.8974 -36.1934 58.8646 1.63153 -38.9426 0.576871 10.2323 0.2466 -1.28209 -0.473396 9.45922 0.879151 -0.0 0.0 -0.0 4.63687 21.682 -7.49769 -27.9887 11.9059 -64.5211 0.733308 19.964 -0.129066 -12.8438 0.625271 -1.51507 -1.98408 -17.2102 5.09192 0.0 0.0 0.0 -1.88347 16.4214 -1.29335 -4.64454 0.163172 0.693926 27.0706 13.0094 -3.59035 -10.4555 0.0 0.0 -0.0 0.0 -0.0 23.9792 6.63104 -7.50318 -50.3751 1.255 -7.38403 36.7816 -9.1428 4.57805 -33.7168 0.0 0.0 0.0 0.0 0.0 
1174.5 746.902 -658.212 153.1 -78.4223 160.303 -1.65945 -0.401576 -3.09816 -1.65414 -0.203717 -3.1174 -1.63802 0.544619 -3.07626 -1.65122 0.0521939 -3.12361 -7.14165 5.81178 9.77636 -6.88274 3.7378 10.9325 -0.0 0.0 -0.0 6.61459 2.86471 12.8304 12.9827 -35.965 57.8561 1.7689 -41.2231 0.665338 9.09283 0.230525 -1.13743 -0.486308 6.03015 -0.661522 -0.0 0.0 -0.0 4.70284 20.8631 -7.71618 -28.7495 11.7251 -65.031 0.663043 18.1829 -0.106102 -11.8005 0.561934 -1.39756 -1.87937 -19.3925 3.40155 0.0 0.0 0.0 -4.07896 15.7685 -1.24932 -1.00497 0.040074 0.149017 27.9663 13.0179 -3.6916 -11.1586 0.0 0.0 -0.0 0.0 -0.0 26.3184 4.74794 -8.04753 -40.9992 0.531558 -6.13758 29.6809 -9.70753 3.86115 -36.6829 0.0 0.0 0.0 0.0 0.0 
1183.15 742.907 -656.573 155.994 -78.2951 163.194 -1.58106 -0.406502 -3.08601 -1.57578 -0.209404 -3.10559 -1.55953 0.532065 -3.06687 -1.57266 0.0412772 -3.11237 -6.6998 6.34898 10.4492 -6.40496 4.1512 11.7105 -0.0 0.0 -0.0 6.90432 3.05592 13.3872 14.5662 -35.4244 56.8831 1.97805 -44.4125 0.807548 8.23235 0.216482 -1.02841 -0.690162 3.302 -3.17791 -0.0 0.0 -0.0 4.59874 20.3635 -7.53664 -29.8079 11.3877 -65.4605 0.583728 16.128 -0.0827033 -11.0182 0.515853 -1.3087 -1.80855 -21.7256 1.86642 0.0 0.0 0.0 -5.55655 15.3638 -0.638928 2.68073 -0.119639 -0.393906 30.3437 12.8723 -3.95211 -11.593 0.0 0.0 -0.0 0.0 -0.0 27.0557 3.62118 -8.61046 -33.7784 0.119104 -5.10818 23.8854 -9.05007 3.20303 -38.7632 0.0 0.0 0.0 0.0 0.0 
1201.31 741.215 -656.025 152.874 -79.2397 159.65 -1.7706 -0.618828 -3.05034 -1.76553 -0.423568 -3.08349 -1.73723 0.328058 -3.0951 -1.75056 -0.164628 -3.10806 -6.78862 6.82933 10.4559 -6.49522 5.0584 11.8079 -0.0 0.0 -0.0 7.42731 3.33896 14.3926 15.6197 -34.4569 55.8199 2.14332 -46.7093 0.925573 7.53212 0.203845 -0.939858 -0.866722 0.603938 -5.53249 -0.0 0.0 -0.0 4.56819 19.6889 -7.5314 -30.8029 10.7879 -66.0012 0.469094 13.0822 -0.0537875 -9.99279 0.457304 -1.19131 -1.61838 -23.0145 0.159555 0.0 0.0 0.0 -8.33805 15.0992 0.663169 5.07883 -0.242211 -0.741306 32.115 14.305 -4.15421 -11.9745 0.0 0.0 -0.0 0.0 -0.0 28.8852 3.52407 -8.92088 -28.3081 -0.105141 -4.29898 14.6575 -8.83565 2.04816 -40.177 0.0 0.0 0.0 0.0 0.0 
